inDegrees=yes
name=ik_S41_A07_T01
DataType=double
version=3
OpenSimVersion=4.3-2021-08-27-4bc7ad9
endheader
time	pelvis_tilt	pelvis_list	pelvis_rotation	pelvis_tx	pelvis_ty	pelvis_tz	hip_flexion_r	hip_adduction_r	hip_rotation_r	knee_angle_r	knee_angle_r_beta	ankle_angle_r	subtalar_angle_r	mtp_angle_r	hip_flexion_l	hip_adduction_l	hip_rotation_l	knee_angle_l	knee_angle_l_beta	ankle_angle_l	subtalar_angle_l	mtp_angle_l	lumbar_extension	lumbar_bending	lumbar_rotation	arm_flex_r	arm_add_r	arm_rot_r	elbow_flex_r	pro_sup_r	wrist_flex_r	wrist_dev_r	arm_flex_l	arm_add_l	arm_rot_l	elbow_flex_l	pro_sup_l	wrist_flex_l	wrist_dev_l
19.11999999999968	-7.322955714859144	-6.23848720480664	32.07904479804277	0	0.9399999999999999	0	39.18665670359498	-9.943336560060558	-9.735258145727167	46.55524734398536	0.8125423502328896	0	0	0	39.18665670359498	-9.943336560060558	-9.735258145727167	46.55524734398536	0.8125423502328896	0	0	0	-8.914415766396825	-2.836281980715625	-0.9926147228724659	68.42933629932865	9.965741850455357	1.4170878110567	51.50604881974531	96.11600346644899	0	0	33.93334169456192	2.935384484152635	15.68328996065039	20.29872331995186	101.1702040178457	0	0
19.13999999999968	-7.327640518371568	-6.240299763324725	32.09437604914472	0	0.9399999999999999	0	39.18823497666526	-9.943389696895084	-9.735417678760395	46.55680693311632	0.8125695701982032	0	0	0	39.18823497666526	-9.943389696895084	-9.735417678760395	46.55680693311632	0.8125695701982032	0	0	0	-8.923929240112416	-2.824343754376755	-1.040109226243102	68.24973551761568	10.17485941266971	1.478434422708167	51.5153228079209	95.69322445075984	0	0	33.9448464561623	2.921643617966633	15.65217145398363	20.28787343396746	101.1859824529977	0	0
19.15999999999968	-7.352702786487066	-6.216157063898551	31.99820938562767	0	0.9399999999999999	0	39.19044946822378	-9.943463614261217	-9.735640291525966	46.55901099243241	0.8126080382901781	0	0	0	39.19044946822378	-9.943463614261217	-9.735640291525966	46.55901099243241	0.8126080382901781	0	0	0	-8.924059549963781	-2.8100638295546	-0.944700643841305	68.26080076717554	10.03552860868514	1.465107434752863	51.78297824126666	96.82734331044357	0	0	33.95968368672864	2.941794183784696	15.67357676771306	20.2557393988051	101.2168910292175	0	0
19.17999999999968	-7.364454045140713	-6.184741842582953	32.00872699440468	0	0.9399999999999999	0	39.19235568345933	-9.94352786167306	-9.735833165198645	46.5608901267284	0.8126408353707304	0	0	0	39.19235568345933	-9.94352786167306	-9.735833165198645	46.5608901267284	0.8126408353707304	0	0	0	-8.922248787530844	-2.76643477736039	-0.988596735934933	68.19199301792057	10.288690190012	1.561872966813702	51.79177471800982	97.1142585873792	0	0	33.94911401776389	2.994213731960351	15.6110355500487	20.25890279078651	101.2089524328839	0	0
19.19999999999968	-7.368846610997987	-6.173225945163763	31.98857804219758	0	0.9399999999999999	0	39.19970964875626	-9.943686274247579	-9.736426751949903	46.56855075706334	0.8127745385928533	0	0	0	39.19970964875626	-9.943686274247579	-9.736426751949903	46.56855075706334	0.8127745385928533	0	0	0	-8.920394169482355	-2.753134336442731	-0.9852375280731556	68.18783719268177	10.29686519019544	1.593226583328428	51.79938855044755	97.11417623586506	0	0	33.91405389531374	2.961763818248792	15.66875708629817	20.26560333972137	101.2457757587107	0	0
19.21999999999968	-7.35730643738398	-6.137376191581379	32.02031345189319	0	0.9399999999999999	0	39.20137112179552	-9.943742027828453	-9.736594405007851	46.57019253754346	0.8128031930678263	0	0	0	39.20137112179552	-9.943742027828453	-9.736594405007851	46.57019253754346	0.8128031930678263	0	0	0	-8.896093828831491	-2.718848077290765	-1.029127148692945	68.22856027201408	10.46827692944896	1.829023288149638	51.40026306166311	97.26971339423018	0	0	33.86276448481475	2.999836798720155	15.61019355353001	20.21265244589159	101.3466056021364	0	0
19.23999999999968	-7.357915695589447	-6.11688518928618	31.99007654983775	0	0.9399999999999999	0	39.20300502850518	-9.943796639124431	-9.736758863321453	46.57181221390037	0.8128314617530711	0	0	0	39.20300502850518	-9.943796639124431	-9.736758863321453	46.57181221390037	0.8128314617530711	0	0	0	-8.880564441885209	-2.713416271025209	-0.9701503524047675	68.23355008911695	10.40045584929561	1.808929297694181	51.26333308691339	97.90223864544195	0	0	33.85656170596936	3.064373183365764	15.74249774630432	20.16051860555155	101.3215907386397	0	0
19.25999999999968	-7.344115743143333	-6.103607293728654	31.96900324811775	0	0.9399999999999999	0	39.20446592948487	-9.943843763669657	-9.736902522652402	46.57330757406321	0.8128575607114159	0	0	0	39.20446592948487	-9.943843763669657	-9.736902522652402	46.57330757406321	0.8128575607114159	0	0	0	-8.859397020116472	-2.715732450886426	-0.9426717092539609	68.18303930069922	10.39461216305235	1.82688465317354	51.12847507792269	98.65243147428922	0	0	33.82588713221651	3.065400835265684	15.74475479297262	20.11258638443659	101.3603349150259	0	0
19.27999999999968	-7.327956065465574	-6.099978106857476	32.04568898992053	0	0.9399999999999999	0	39.20647770566291	-9.943911313352221	-9.73710567294761	46.57529109011089	0.8128921795972139	0	0	0	39.20647770566291	-9.943911313352221	-9.73710567294761	46.57529109011089	0.8128921795972139	0	0	0	-8.84885367927509	-2.708891450556937	-1.001207343833808	68.13122070239547	10.31720534869025	2.70601798828496	51.06315099615974	98.57593214590302	0	0	33.84334478624417	3.095130491697976	15.77201817348709	20.03171710111978	101.3811151906717	0	0
19.29999999999968	-7.322464026922767	-6.080370685736802	32.11392995749367	0	0.9399999999999999	0	39.20918110516576	-9.944002095909235	-9.737378730632736	46.57795399759716	0.8129386561005254	0	0	0	39.20918110516576	-9.944002095909235	-9.737378730632736	46.57795399759716	0.8129386561005254	0	0	0	-8.838340316685066	-2.68454532013915	-1.050000986644473	67.91094442091357	10.11075426150266	3.470277182513548	51.30986283636134	98.06102579061935	0	0	33.84940346001998	3.137096168657139	15.72784563654958	19.97734084138196	101.4391833039272	0	0
19.31999999999968	-7.319768418594395	-6.073624921452245	32.15460791469623	0	0.9399999999999999	0	39.21135749918651	-9.944074949546092	-9.737598134476661	46.58010244418813	0.8129761535673411	0	0	0	39.21135749918651	-9.944074949546092	-9.737598134476661	46.58010244418813	0.8129761535673411	0	0	0	-8.834987483537279	-2.673987821733326	-1.078690880727504	67.66669202549069	9.87666386915441	4.013574682770249	51.4439372823331	97.66384739073052	0	0	33.85932218351517	3.155271079371083	15.64327658776193	19.95359840393757	101.5066516787376	0	0
19.33999999999968	-7.322240204316465	-6.054616660249001	32.16806830905844	0	0.9399999999999999	0	39.21417105062257	-9.94416888441361	-9.737881320139167	46.58288474724798	0.8130247139165238	0	0	0	39.21417105062257	-9.94416888441361	-9.737881320139167	46.58288474724798	0.8130247139165238	0	0	0	-8.823387418281586	-2.664972221184355	-1.037505229108482	67.50868600459673	9.49998399578104	4.243447047156645	51.64042243605373	97.27775688028906	0	0	33.83032145424511	3.20691384943342	15.61175472037579	19.94254323257363	101.5880636534822	0	0
